<svg width="14" height="16" viewBox="0 0 14 16" fill="none" xmlns="http://www.w3.org/2000/svg">
<mask id="mask0_2_681" style="mask-type:alpha" maskUnits="userSpaceOnUse" x="0" y="0" width="14" height="16">
<rect x="0.646362" y="0.00958252" width="12.8133" height="15.7343" fill="#D9D9D9"/>
</mask>
<g mask="url(#mask0_2_681)">
<path d="M6.77432 11.6197H4.42996C3.6192 11.6197 2.9281 11.2967 2.35667 10.6507C1.78523 10.0047 1.49951 9.2234 1.49951 8.30686C1.49951 7.39032 1.78523 6.60905 2.35667 5.96306C2.9281 5.31706 3.6192 4.99406 4.42996 4.99406H6.77432V6.31918H4.42996C3.94155 6.31918 3.5264 6.51243 3.18452 6.89892C2.84263 7.28542 2.67169 7.75473 2.67169 8.30686C2.67169 8.85899 2.84263 9.32831 3.18452 9.7148C3.5264 10.1013 3.94155 10.2945 4.42996 10.2945H6.77432V11.6197ZM5.01605 8.96942V7.6443H9.70477V8.96942H5.01605ZM7.9465 11.6197V10.2945H10.2909C10.7793 10.2945 11.1944 10.1013 11.5363 9.7148C11.8782 9.32831 12.0491 8.85899 12.0491 8.30686C12.0491 7.75473 11.8782 7.28542 11.5363 6.89892C11.1944 6.51243 10.7793 6.31918 10.2909 6.31918H7.9465V4.99406H10.2909C11.1016 4.99406 11.7927 5.31706 12.3641 5.96306C12.9356 6.60905 13.2213 7.39032 13.2213 8.30686C13.2213 9.2234 12.9356 10.0047 12.3641 10.6507C11.7927 11.2967 11.1016 11.6197 10.2909 11.6197H7.9465Z" fill="#5069B1"/>
</g>
</svg>
