<svg width="345" height="150" viewBox="0 0 345 150" fill="none" xmlns="http://www.w3.org/2000/svg">
<g clip-path="url(#clip0_108_9078)">
<path d="M340.604 68.1637C340.556 68.1157 340.5 68.0836 340.452 68.0356C340.388 67.9636 340.332 67.8915 340.26 67.8275C340.212 67.7794 340.156 67.7474 340.108 67.6994C340.044 67.6273 339.987 67.5553 339.915 67.4912C339.867 67.4432 339.811 67.4112 339.763 67.3632C339.739 67.3392 339.723 67.3151 339.699 67.2911C340.068 67.059 340.42 66.7788 340.74 66.4586C341.901 65.2978 342.518 63.7929 342.518 62.1198V56.148C342.518 54.4269 341.901 52.8979 340.74 51.7372C340.684 51.6731 340.62 51.6251 340.564 51.5771C340.508 51.521 340.46 51.457 340.404 51.401C340.348 51.3369 340.284 51.2889 340.228 51.2409C340.172 51.1848 340.124 51.1208 340.068 51.0647C340.012 51.0007 339.947 50.9527 339.891 50.9046C339.835 50.8486 339.787 50.7846 339.731 50.7285C339.675 50.6645 339.611 50.6165 339.555 50.5684C339.499 50.5124 339.451 50.4483 339.395 50.3923C339.339 50.3283 339.275 50.2802 339.219 50.2322C339.163 50.1762 339.115 50.1121 339.059 50.0561C339.003 49.9921 338.939 49.944 338.882 49.896C338.826 49.84 338.778 49.7759 338.722 49.7199C338.666 49.6558 338.602 49.6078 338.546 49.5598C338.49 49.5037 338.442 49.4397 338.386 49.3837C338.33 49.3196 338.266 49.2716 338.21 49.2236C338.154 49.1675 338.106 49.1035 338.05 49.0474C337.994 48.9834 337.93 48.9354 337.874 48.8873C337.818 48.8313 337.769 48.7673 337.713 48.7112C337.657 48.6472 337.593 48.5992 337.537 48.5511C337.481 48.4951 337.433 48.4311 337.377 48.375C337.321 48.311 337.257 48.2629 337.201 48.2149C337.145 48.1589 337.097 48.0948 337.041 48.0388C336.985 47.9748 336.921 47.9267 336.865 47.8787C336.809 47.8227 336.761 47.7586 336.704 47.7026C336.648 47.6385 336.584 47.5905 336.528 47.5425C336.472 47.4864 336.424 47.4224 336.368 47.3664C336.312 47.3023 336.248 47.2543 336.192 47.2063C336.136 47.1502 336.088 47.0862 336.032 47.0302C335.976 46.9661 335.912 46.9181 335.856 46.8701C335.8 46.814 335.752 46.75 335.696 46.6939C335.64 46.6299 335.575 46.5819 335.519 46.5338C335.463 46.4778 335.415 46.4138 335.359 46.3577C335.303 46.2937 335.239 46.2457 335.183 46.1976C335.127 46.1416 335.079 46.0775 335.023 46.0215C334.967 45.9575 334.903 45.9094 334.847 45.8614C334.791 45.8054 334.743 45.7413 334.687 45.6853C334.631 45.6213 334.567 45.5732 334.511 45.5252C334.454 45.4692 334.406 45.4051 334.35 45.3491C334.294 45.285 334.23 45.237 334.174 45.189C334.118 45.1329 334.07 45.0689 334.014 45.0129C333.958 44.9488 333.894 44.9008 333.838 44.8528C333.782 44.7967 333.734 44.7327 333.678 44.6767C333.622 44.6126 333.558 44.5646 333.502 44.5165C333.446 44.4605 333.397 44.3965 333.341 44.3404C333.285 44.2764 333.221 44.2284 333.165 44.1803C333.109 44.1243 333.061 44.0603 333.005 44.0042C332.949 43.9402 332.885 43.8921 332.829 43.8441C332.773 43.7881 332.725 43.724 332.669 43.668C331.508 42.4993 329.978 41.8909 328.257 41.8909H308.647C306.974 41.8909 305.468 42.5073 304.307 43.668C303.747 44.2284 303.322 44.8688 303.026 45.5732C303.002 45.5492 302.978 45.5172 302.954 45.4932C302.898 45.4371 302.834 45.3891 302.778 45.3331C302.722 45.277 302.674 45.213 302.618 45.157C302.562 45.1009 302.498 45.0529 302.441 44.9969C302.385 44.9408 302.337 44.8768 302.281 44.8207C302.225 44.7647 302.161 44.7167 302.105 44.6606C302.049 44.6046 302.001 44.5406 301.945 44.4845C300.224 42.7634 297.925 41.8989 295.099 41.8989H276.01C274.744 41.8989 273.623 42.4993 272.847 43.588L271.646 45.5652C271.542 45.4451 271.429 45.3411 271.317 45.237C271.213 45.1169 271.093 45.0049 270.981 44.9008C270.869 44.7807 270.757 44.6686 270.645 44.5646C270.541 44.4445 270.421 44.3324 270.308 44.2284C270.196 44.1083 270.084 43.9962 269.972 43.8921C269.868 43.7721 269.748 43.66 269.636 43.5559C269.524 43.4359 269.412 43.3238 269.3 43.2197C268.547 42.3792 267.546 41.9149 266.441 41.9149H247.2C244.373 41.9149 242.075 42.7874 240.353 44.5005C239.921 44.9328 239.545 45.3971 239.224 45.8934C239.208 45.8774 239.2 45.8614 239.184 45.8534C239.128 45.7974 239.064 45.7493 239.008 45.6933C238.952 45.6373 238.904 45.5732 238.848 45.5172C238.792 45.4612 238.728 45.4131 238.672 45.3571C238.616 45.301 238.568 45.237 238.512 45.181C238.456 45.1249 238.392 45.0769 238.336 45.0209C238.279 44.9648 238.231 44.9008 238.175 44.8448C238.119 44.7887 238.055 44.7407 237.999 44.6847C237.943 44.6286 237.895 44.5646 237.839 44.5085C236.118 42.7874 233.819 41.9229 230.993 41.9229H188.979C186.152 41.9229 183.854 42.7954 182.133 44.5085C181.7 44.9408 181.324 45.4051 181.004 45.9014C180.988 45.8854 180.98 45.8694 180.964 45.8614C180.908 45.8054 180.844 45.7573 180.787 45.7013C180.731 45.6453 180.683 45.5812 180.627 45.5252C180.571 45.4692 180.507 45.4211 180.451 45.3651C180.395 45.3091 180.347 45.245 180.291 45.189C180.235 45.1329 180.171 45.0849 180.115 45.0289C180.059 44.9728 180.011 44.9088 179.955 44.8528C179.899 44.7967 179.835 44.7487 179.779 44.6927C179.723 44.6366 179.674 44.5726 179.618 44.5165C177.897 42.7954 175.599 41.9309 172.772 41.9309H153.683C152.418 41.9309 151.297 42.5313 150.52 43.62L149.319 45.5972C149.215 45.4772 149.103 45.3731 148.991 45.269C148.887 45.149 148.767 45.0369 148.654 44.9328C148.542 44.8127 148.43 44.7007 148.318 44.5966C148.214 44.4765 148.094 44.3645 147.982 44.2604C147.87 44.1403 147.758 44.0282 147.646 43.9242C147.541 43.8041 147.421 43.692 147.309 43.588C147.197 43.4679 147.085 43.3558 146.973 43.2517C146.22 42.4112 145.219 41.9469 144.114 41.9469H124.873C122.046 41.9469 119.748 42.8195 118.027 44.5326C117.594 44.9648 117.218 45.4291 116.898 45.9335C116.882 45.9174 116.874 45.9014 116.858 45.8934C116.802 45.8374 116.738 45.7894 116.682 45.7333C116.625 45.6773 116.577 45.6132 116.521 45.5572C116.465 45.5012 116.401 45.4531 116.345 45.3971C116.289 45.3411 116.241 45.277 116.185 45.221C116.129 45.165 116.065 45.1169 116.009 45.0609C115.953 45.0049 115.905 44.9408 115.849 44.8848C115.793 44.8287 115.729 44.7807 115.673 44.7247C115.617 44.6686 115.568 44.6046 115.512 44.5486C113.791 42.8275 111.493 41.9629 108.666 41.9629H69.5989C66.7724 41.9629 64.4743 42.8355 62.7527 44.5486C62.3203 44.9808 61.944 45.4451 61.6237 45.9415C61.6077 45.9254 61.5997 45.9094 61.5837 45.9014C61.5276 45.8454 61.4636 45.7974 61.4075 45.7413C61.3515 45.6853 61.3034 45.6213 61.2474 45.5652C61.1913 45.5092 61.1273 45.4612 61.0712 45.4051C61.0152 45.3491 60.9671 45.285 60.9111 45.229C60.855 45.173 60.791 45.1249 60.7349 45.0689C60.6789 45.0129 60.6308 44.9488 60.5748 44.8928C60.5187 44.8368 60.4547 44.7887 60.3986 44.7327C60.3426 44.6767 60.2945 44.6126 60.2385 44.5566C58.5169 42.8355 56.2188 41.9709 53.3923 41.9709H37.9863C37.0095 41.9709 36.0886 42.3872 35.2318 43.1957L32.4613 45.4772L29.6828 43.1957C28.8261 42.3792 27.8972 41.9709 26.9283 41.9709H11.2502C8.4236 41.9709 6.12552 42.8435 4.40397 44.5566C2.68241 46.2777 1.81763 48.5751 1.81763 51.401V90.7541C1.81763 93.5799 2.69042 95.8774 4.40397 97.5985C4.46002 97.6546 4.52407 97.7026 4.58013 97.7586C4.63618 97.8147 4.68422 97.8787 4.74027 97.9347C4.79632 97.9908 4.86038 98.0388 4.91643 98.0948C4.97248 98.1509 5.02052 98.2149 5.07657 98.271C5.13263 98.327 5.19668 98.375 5.25273 98.4311C5.30878 98.4871 5.35683 98.5511 5.41288 98.6072C5.46893 98.6632 5.53299 98.7112 5.58904 98.7673C5.64509 98.8233 5.69313 98.8873 5.74918 98.9434C5.80523 98.9994 5.86929 99.0475 5.92534 99.1035C5.98139 99.1595 6.02944 99.2236 6.08549 99.2796C6.14154 99.3356 6.2056 99.3837 6.26165 99.4397C6.3177 99.4957 6.36574 99.5598 6.42179 99.6158C6.47784 99.6718 6.5419 99.7199 6.59795 99.7759C6.654 99.8319 6.70204 99.896 6.75809 99.952C6.81415 100.008 6.8782 100.056 6.93425 100.112C6.9903 100.168 7.03835 100.232 7.0944 100.288C7.15045 100.344 7.21451 100.392 7.27056 100.448C7.32661 100.504 7.37465 100.568 7.4307 100.624C7.48675 100.68 7.55081 100.729 7.60686 100.785C7.66291 100.841 7.71096 100.905 7.76701 100.961C7.82306 101.017 7.88712 101.065 7.94317 101.121C7.99922 101.177 8.04726 101.241 8.10331 101.297C8.15936 101.353 8.22342 101.401 8.27947 101.457C8.33552 101.513 8.38357 101.577 8.43962 101.633C8.49567 101.689 8.55972 101.737 8.61577 101.793C8.67183 101.849 8.71987 101.913 8.77592 101.969C8.83197 102.025 8.89603 102.073 8.95208 102.129C9.00813 102.185 9.05617 102.25 9.11222 102.306C9.16828 102.362 9.23233 102.41 9.28838 102.466C9.34443 102.522 9.39248 102.586 9.44853 102.642C9.50458 102.698 9.56864 102.746 9.62469 102.802C9.68074 102.858 9.72878 102.922 9.78483 102.978C9.84088 103.034 9.90494 103.082 9.96099 103.138C10.017 103.194 10.0651 103.258 10.1211 103.314C10.1772 103.37 10.2412 103.418 10.2973 103.474C10.3533 103.53 10.4014 103.594 10.4574 103.65C10.5135 103.706 10.5775 103.754 10.6336 103.81C10.6897 103.867 10.7377 103.931 10.7937 103.987C10.8498 104.043 10.9139 104.091 10.9699 104.147C11.026 104.203 11.074 104.267 11.13 104.323C11.1861 104.379 11.2502 104.427 11.3062 104.483C11.3623 104.539 11.4103 104.603 11.4664 104.659C11.5224 104.715 11.5865 104.763 11.6425 104.819C11.6986 104.875 11.7466 104.939 11.8027 104.995C11.8587 105.051 11.9228 105.099 11.9788 105.155C12.0349 105.211 12.0829 105.275 12.139 105.331C12.195 105.388 12.2591 105.436 12.3151 105.492C12.3712 105.548 12.4192 105.612 12.4753 105.668C14.1968 107.389 16.4949 108.253 19.3215 108.253H34.9516C37.0014 108.253 38.4908 106.764 38.4908 104.715V102.562C38.4908 102.562 38.5789 102.626 38.6189 102.666C38.723 102.786 38.8351 102.898 38.9552 103.002C39.0593 103.122 39.1714 103.234 39.2915 103.338C39.3956 103.458 39.5077 103.57 39.6278 103.674C39.7319 103.794 39.844 103.907 39.9641 104.011C40.0682 104.131 40.1803 104.243 40.3004 104.347C40.4045 104.467 40.5166 104.579 40.6367 104.683C40.7408 104.803 40.8529 104.915 40.973 105.019C41.0771 105.139 41.1892 105.251 41.3093 105.355C41.4134 105.476 41.5255 105.588 41.6456 105.692C41.7497 105.812 41.8618 105.924 41.9819 106.028C42.086 106.148 42.1981 106.26 42.3183 106.364C42.4223 106.484 42.5345 106.596 42.6546 106.7C42.7587 106.82 42.8708 106.932 42.9909 107.037C43.6234 107.773 44.5603 108.221 45.6813 108.221H61.3114C64.138 108.221 66.4441 107.349 68.1576 105.636C69.1425 104.651 69.8391 103.474 70.2635 102.121L75.172 107.029C75.9407 107.797 76.9576 108.221 78.0466 108.221H116.593C119.42 108.221 121.726 107.349 123.44 105.636C123.872 105.203 124.248 104.739 124.569 104.235C124.585 104.251 124.593 104.267 124.609 104.275C124.665 104.331 124.729 104.379 124.785 104.435C124.841 104.491 124.889 104.555 124.945 104.611C125.001 104.667 125.065 104.715 125.121 104.771C125.177 104.827 125.225 104.891 125.281 104.947C125.337 105.003 125.401 105.051 125.457 105.107C125.513 105.163 125.562 105.227 125.618 105.283C125.674 105.339 125.738 105.388 125.794 105.444C125.85 105.5 125.898 105.564 125.954 105.62C127.675 107.341 129.974 108.205 132.8 108.205H149.535C151.585 108.205 153.074 106.716 153.074 104.667V101.977L154.38 103.226L154.468 103.306C155.621 104.323 157.062 104.539 158.263 103.995C158.359 104.107 158.463 104.211 158.575 104.307C158.679 104.427 158.792 104.539 158.912 104.643C159.016 104.763 159.128 104.875 159.248 104.979C159.352 105.099 159.464 105.211 159.584 105.315C159.688 105.436 159.801 105.548 159.921 105.652C160.025 105.772 160.137 105.884 160.257 105.988C160.361 106.108 160.473 106.22 160.593 106.324C160.697 106.444 160.809 106.556 160.93 106.66C161.034 106.78 161.146 106.892 161.266 106.997C161.898 107.733 162.835 108.181 163.956 108.181H180.691C183.518 108.181 185.816 107.309 187.538 105.596C187.97 105.163 188.346 104.699 188.667 104.203C188.683 104.219 188.691 104.235 188.707 104.243C188.763 104.299 188.827 104.347 188.883 104.403C188.939 104.459 188.987 104.523 189.043 104.579C189.099 104.635 189.163 104.683 189.219 104.739C189.275 104.795 189.323 104.859 189.379 104.915C189.435 104.971 189.499 105.019 189.555 105.075C189.611 105.131 189.66 105.195 189.716 105.251C189.772 105.307 189.836 105.355 189.892 105.412C189.948 105.468 189.996 105.532 190.052 105.588C191.773 107.309 194.071 108.173 196.898 108.173H238.912C241.739 108.173 244.045 107.301 245.758 105.588C246.191 105.155 246.567 104.691 246.887 104.195C246.903 104.211 246.911 104.227 246.927 104.235C246.983 104.291 247.047 104.339 247.103 104.395C247.16 104.451 247.208 104.515 247.264 104.571C247.32 104.627 247.384 104.675 247.44 104.731C247.496 104.787 247.544 104.851 247.6 104.907C247.656 104.963 247.72 105.011 247.776 105.067C247.832 105.123 247.88 105.187 247.936 105.243C247.992 105.299 248.056 105.347 248.112 105.404C248.168 105.46 248.216 105.524 248.273 105.58C249.994 107.301 252.292 108.165 255.119 108.165H271.854C273.904 108.165 275.393 106.676 275.393 104.627V101.937L276.698 103.186L276.786 103.266C277.939 104.283 279.381 104.499 280.582 103.955C280.678 104.067 280.782 104.171 280.894 104.267C280.998 104.387 281.11 104.499 281.23 104.603C281.334 104.723 281.447 104.835 281.567 104.939C281.671 105.059 281.783 105.171 281.903 105.275C282.007 105.396 282.119 105.508 282.239 105.612C282.343 105.732 282.455 105.844 282.576 105.948C282.68 106.068 282.792 106.18 282.912 106.284C283.016 106.404 283.128 106.516 283.248 106.62C283.352 106.74 283.464 106.852 283.584 106.957C284.217 107.693 285.154 108.141 286.275 108.141H303.01C305.837 108.141 308.135 107.269 309.856 105.556C310.289 105.123 310.665 104.659 310.985 104.163C311.001 104.179 311.009 104.195 311.025 104.203C311.081 104.259 311.145 104.307 311.201 104.363C311.257 104.419 311.306 104.483 311.362 104.539C311.418 104.595 311.482 104.643 311.538 104.699C311.594 104.755 311.642 104.819 311.698 104.875C311.754 104.931 311.818 104.979 311.874 105.035C311.93 105.091 311.978 105.155 312.034 105.211C312.09 105.267 312.154 105.315 312.21 105.371C312.266 105.428 312.314 105.492 312.37 105.548C314.092 107.269 316.39 108.133 319.217 108.133H333.59C336.416 108.133 338.722 107.261 340.436 105.548C342.157 103.827 343.022 101.529 343.022 98.7032V74.976C343.022 72.1502 342.149 69.8528 340.436 68.1317L340.604 68.1637Z" fill="#5069B1"/>
<path d="M37.3938 44.2922H52.7997C54.8656 44.2922 56.483 44.8846 57.6681 46.0614C58.8532 47.2381 59.4377 48.8632 59.4377 50.9285V90.2817C59.4377 92.347 58.8452 93.964 57.6681 95.1488C56.491 96.3255 54.8656 96.9179 52.7997 96.9179H37.1696C36.6811 96.9179 36.4329 96.6698 36.4329 96.1814V79.7469C36.4329 79.0105 36.1366 78.8664 35.5521 79.3066L32.3812 81.8843C32.085 82.1805 31.7407 82.1805 31.3483 81.8843L28.0333 79.3066C27.4408 78.8664 27.1525 78.9864 27.1525 79.6749V96.1814C27.1525 96.6698 26.9043 96.9179 26.4158 96.9179H10.7857C8.71984 96.9179 7.10238 96.3255 5.91731 95.1488C4.73223 93.972 4.14771 92.347 4.14771 90.2817V50.9285C4.14771 48.8632 4.74024 47.2461 5.91731 46.0614C7.09437 44.8846 8.71984 44.2922 10.7857 44.2922H26.3358C26.584 44.2922 26.8723 44.4683 27.2166 44.8046L31.3483 48.1907C31.6926 48.4869 32.0369 48.4869 32.3812 48.1907L36.513 44.8046C36.8573 44.4603 37.1536 44.2922 37.3938 44.2922Z" fill="#FBF4E4"/>
<path d="M112.942 46.0536C114.119 47.2303 114.712 48.8554 114.712 50.9207V77.8899C114.712 78.2342 114.592 78.5303 114.343 78.7705L107.93 86.7276C107.729 86.9757 107.673 87.1839 107.745 87.352C107.817 87.5281 108.002 87.6082 108.298 87.6082H113.975C114.463 87.6082 114.712 87.8563 114.712 88.3446V90.2578C114.712 92.3232 114.119 93.9402 112.942 95.125C111.765 96.3017 110.14 96.8941 108.074 96.8941H69.5269C69.1825 96.8941 68.8863 96.774 68.6461 96.5259L62.7527 90.6341C62.5045 90.3859 62.3844 90.0977 62.3844 89.7535V50.9207C62.3844 48.8554 62.9769 47.2383 64.154 46.0536C65.3311 44.8768 66.9565 44.2844 69.0224 44.2844H108.09C110.156 44.2844 111.773 44.8768 112.958 46.0536H112.942ZM105.207 68.2758C105.8 67.6594 106.088 66.8349 106.088 65.8102V63.3766C106.088 62.344 105.792 61.5355 105.207 60.9431C104.615 60.3507 103.806 60.0625 102.773 60.0625H100.267C99.2337 60.0625 98.409 60.3587 97.8004 60.9431C97.1839 61.5355 96.8796 62.344 96.8796 63.3766V65.8102C96.8796 66.8429 97.1839 67.6674 97.8004 68.2758C98.417 68.8922 99.2337 69.1964 100.267 69.1964H102.773C103.806 69.1964 104.615 68.8922 105.207 68.2758Z" fill="#FBF4E4"/>
<path d="M141.032 96.9021H124.296C122.231 96.9021 120.613 96.3097 119.428 95.1329C118.243 93.9562 117.658 92.3311 117.658 90.2658V50.9126C117.658 48.8473 118.251 47.2303 119.428 46.0455C120.605 44.8687 122.231 44.2764 124.296 44.2764H143.538C143.882 44.2764 144.178 44.4525 144.419 44.7887L147.806 50.3923C147.95 50.5924 148.126 50.6885 148.318 50.6885C148.51 50.6885 148.686 50.5924 148.831 50.3923L152.218 44.7887C152.466 44.4445 152.754 44.2764 153.098 44.2764H172.188C174.254 44.2764 175.871 44.8687 177.056 46.0455C178.233 47.2223 178.826 48.8473 178.826 50.9126V90.2658C178.826 92.3311 178.233 93.9482 177.056 95.1329C175.879 96.3177 174.254 96.9021 172.188 96.9021H155.453C154.964 96.9021 154.716 96.6539 154.716 96.1656V88.3526C154.716 87.9603 154.628 87.7282 154.46 87.6561C154.284 87.5841 154.075 87.6721 153.835 87.9123L148.823 92.7794C148.526 93.0756 148.182 93.0516 147.79 92.7074L142.633 87.7682C142.385 87.52 142.177 87.44 142.008 87.512C141.832 87.5841 141.752 87.8162 141.752 88.2085V96.1656C141.752 96.6539 141.504 96.9021 141.016 96.9021H141.032Z" fill="#FBF4E4"/>
<path d="M235.301 46.0536C236.478 47.2303 237.07 48.8554 237.07 50.9207V90.2739C237.07 92.3392 236.478 93.9562 235.301 95.141C234.124 96.3177 232.498 96.9101 230.432 96.9101H188.418C186.353 96.9101 184.735 96.3177 183.55 95.141C182.365 93.9642 181.78 92.3392 181.78 90.2739V50.9207C181.78 48.8554 182.373 47.2383 183.55 46.0536C184.727 44.8768 186.353 44.2844 188.418 44.2844H230.432C232.498 44.2844 234.116 44.8768 235.301 46.0536ZM220.159 79.3309C219.543 79.9472 219.238 80.7638 219.238 81.7964V84.302C219.238 85.3347 219.543 86.1432 220.159 86.7356C220.776 87.328 221.592 87.6162 222.625 87.6162H225.132C226.165 87.6162 226.973 87.32 227.566 86.7356C228.158 86.1512 228.447 85.3347 228.447 84.302V81.7964C228.447 80.7638 228.15 79.9392 227.566 79.3309C226.973 78.7145 226.165 78.4103 225.132 78.4103H222.625C221.592 78.4103 220.768 78.7145 220.159 79.3309Z" fill="#FBF4E4"/>
<path d="M263.39 96.9021H246.655C244.589 96.9021 242.972 96.3097 241.787 95.1329C240.602 93.9562 240.017 92.3311 240.017 90.2658V50.9126C240.017 48.8473 240.61 47.2303 241.787 46.0455C242.964 44.8687 244.589 44.2764 246.655 44.2764H265.897C266.241 44.2764 266.537 44.4525 266.777 44.7887L270.164 50.3923C270.308 50.5924 270.485 50.6885 270.677 50.6885C270.869 50.6885 271.045 50.5924 271.189 50.3923L274.576 44.7887C274.825 44.4445 275.113 44.2764 275.457 44.2764H294.546C296.612 44.2764 298.23 44.8687 299.415 46.0455C300.592 47.2223 301.184 48.8473 301.184 50.9126V90.2658C301.184 92.3311 300.592 93.9482 299.415 95.1329C298.238 96.3177 296.612 96.9021 294.546 96.9021H277.811C277.323 96.9021 277.075 96.6539 277.075 96.1656V88.3526C277.075 87.9603 276.987 87.7282 276.818 87.6561C276.642 87.5841 276.434 87.6721 276.194 87.9123L271.181 92.7794C270.885 93.0756 270.541 93.0516 270.148 92.7074L264.992 87.7682C264.743 87.52 264.535 87.44 264.367 87.512C264.191 87.5841 264.111 87.8162 264.111 88.2085V96.1656C264.111 96.6539 263.863 96.9021 263.374 96.9021H263.39Z" fill="#FBF4E4"/>
<path d="M330.018 61.6796C331.196 62.8563 331.788 64.4813 331.788 66.5467V90.2739C331.788 92.3392 331.196 93.9562 330.018 95.141C328.841 96.3177 327.216 96.9101 325.15 96.9101H310.777C308.711 96.9101 307.094 96.3177 305.909 95.141C304.724 93.9642 304.139 92.3392 304.139 90.2739V66.5467C304.139 64.4813 304.732 62.8643 305.909 61.6796C307.086 60.5028 308.711 59.9104 310.777 59.9104H325.15C327.216 59.9104 328.833 60.5028 330.018 61.6796ZM330.171 45.245C330.811 45.8854 331.131 46.694 331.131 47.6786V53.6504C331.131 54.587 330.811 55.3715 330.171 56.0119C329.53 56.6523 328.721 56.9725 327.736 56.9725H308.127C307.19 56.9725 306.405 56.6523 305.765 56.0119C305.124 55.3715 304.804 54.587 304.804 53.6504V47.6786C304.804 46.694 305.124 45.8854 305.765 45.245C306.405 44.6046 307.19 44.2844 308.127 44.2844H327.736C328.721 44.2844 329.53 44.6046 330.171 45.245Z" fill="#FBF4E4"/>
<path d="M52.7997 44.2922H37.3938C37.1455 44.2922 36.8493 44.4683 36.513 44.8046L32.3812 48.1907C32.0369 48.4869 31.6926 48.4869 31.3483 48.1907L27.2166 44.8046C26.8723 44.4603 26.576 44.2922 26.3358 44.2922H10.7857C8.71984 44.2922 7.10238 44.8846 5.91731 46.0614C4.74024 47.2381 4.14771 48.8632 4.14771 50.9285V70.6051H59.4297V50.9285C59.4297 48.8632 58.8372 47.2461 57.6601 46.0614C56.483 44.8766 54.8576 44.2922 52.7917 44.2922H52.7997Z" fill="#F0C969"/>
<path d="M59.4297 72.6785H4.14771V77.1213H59.4297V72.6785Z" fill="#F0C969"/>
<path d="M27.1445 80.3794H4.14771V83.5654H27.1445V80.3794Z" fill="#F0C969"/>
<path d="M32.3812 81.8683L34.2149 80.3794H29.4346L31.3483 81.8683C31.7407 82.1645 32.085 82.1645 32.3812 81.8683Z" fill="#F0C969"/>
<path d="M59.4297 80.3794H36.4329V83.5654H59.4297V80.3794Z" fill="#F0C969"/>
<path d="M27.1445 87.2158H4.14771V88.7288H27.1445V87.2158Z" fill="#F0C969"/>
<path d="M59.4297 87.2158H36.4329V88.7288H59.4297V87.2158Z" fill="#F0C969"/>
<path d="M108.082 44.2925H69.0143C66.9485 44.2925 65.331 44.8849 64.1459 46.0616C62.9689 47.2384 62.3763 48.8634 62.3763 50.9287V70.6053H114.712V50.9287C114.712 48.8634 114.119 47.2464 112.942 46.0616C111.765 44.8769 110.14 44.2925 108.074 44.2925H108.082ZM106.088 65.8102C106.088 66.8429 105.792 67.6674 105.207 68.2758C104.615 68.8922 103.806 69.1964 102.773 69.1964H100.267C99.2337 69.1964 98.4089 68.8922 97.8004 68.2758C97.1838 67.6594 96.8795 66.8349 96.8795 65.8102V63.3767C96.8795 62.344 97.1838 61.5355 97.8004 60.9431C98.4169 60.3508 99.2337 60.0626 100.267 60.0626H102.773C103.806 60.0626 104.615 60.3588 105.207 60.9431C105.8 61.5355 106.088 62.344 106.088 63.3767V65.8102Z" fill="#F0C969"/>
<path d="M114.712 72.6785H62.3763V77.1213H114.712V72.6785Z" fill="#F0C969"/>
<path d="M62.3763 80.3794V83.5654H110.492L113.054 80.3794H62.3763Z" fill="#F0C969"/>
<path d="M62.3763 87.2158V88.7287H114.712V88.3525C114.712 87.8642 114.463 87.616 113.975 87.616H108.298C108.002 87.616 107.817 87.528 107.745 87.3599C107.721 87.3118 107.713 87.2638 107.713 87.2078H62.3763V87.2158Z" fill="#F0C969"/>
<path d="M141.032 96.9021H124.296C122.231 96.9021 120.613 96.3097 119.428 95.1329C118.243 93.9562 117.658 92.3311 117.658 90.2658V50.9126C117.658 48.8473 118.251 47.2303 119.428 46.0455C120.605 44.8687 122.231 44.2764 124.296 44.2764H143.538C143.882 44.2764 144.178 44.4525 144.419 44.7887L147.806 50.3923C147.95 50.5924 148.126 50.6885 148.318 50.6885C148.51 50.6885 148.686 50.5924 148.831 50.3923L152.218 44.7887C152.466 44.4445 152.754 44.2764 153.098 44.2764H172.188C174.254 44.2764 175.871 44.8687 177.056 46.0455C178.233 47.2223 178.826 48.8473 178.826 50.9126V90.2658C178.826 92.3311 178.233 93.9482 177.056 95.1329C175.879 96.3177 174.254 96.9021 172.188 96.9021H155.453C154.964 96.9021 154.716 96.6539 154.716 96.1656V88.3526C154.716 87.9603 154.628 87.7282 154.46 87.6561C154.284 87.5841 154.075 87.6721 153.835 87.9123L148.823 92.7794C148.526 93.0756 148.182 93.0516 147.79 92.7074L142.633 87.7682C142.385 87.52 142.177 87.44 142.008 87.512C141.832 87.5841 141.752 87.8162 141.752 88.2085V96.1656C141.752 96.6539 141.504 96.9021 141.016 96.9021H141.032Z" fill="#FBF4E4"/>
<path d="M172.212 44.2925H153.122C152.778 44.2925 152.482 44.4686 152.242 44.8048L148.855 50.4084C148.71 50.6085 148.534 50.7046 148.342 50.7046C148.15 50.7046 147.974 50.6085 147.83 50.4084L144.443 44.8048C144.194 44.4606 143.898 44.2925 143.562 44.2925H124.32C122.255 44.2925 120.637 44.8849 119.452 46.0616C118.275 47.2384 117.682 48.8634 117.682 50.9287V70.6053H178.866V50.9287C178.866 48.8634 178.273 47.2464 177.096 46.0616C175.919 44.8849 174.294 44.2925 172.228 44.2925H172.212Z" fill="#F0C969"/>
<path d="M178.85 72.6785H117.666V77.1213H178.85V72.6785Z" fill="#F0C969"/>
<path d="M178.85 80.3794H117.666V83.5654H178.85V80.3794Z" fill="#F0C969"/>
<path d="M178.842 88.7288V87.2158H117.658V88.7288H141.76V88.2085C141.76 87.8162 141.848 87.5841 142.016 87.512C142.185 87.44 142.393 87.528 142.641 87.7682L143.65 88.7288H153.01L153.851 87.9123C154.099 87.6641 154.308 87.5841 154.476 87.6561C154.644 87.7282 154.732 87.9603 154.732 88.3526V88.7288H178.834H178.842Z" fill="#F0C969"/>
<path d="M294.57 44.2925H275.481C275.137 44.2925 274.84 44.4686 274.6 44.8048L271.213 50.4084C271.069 50.6085 270.893 50.7046 270.701 50.7046C270.509 50.7046 270.332 50.6085 270.188 50.4084L266.801 44.8048C266.553 44.4606 266.257 44.2925 265.92 44.2925H246.679C244.613 44.2925 242.996 44.8849 241.811 46.0616C240.634 47.2384 240.041 48.8634 240.041 50.9287V70.6053H301.224V50.9287C301.224 48.8634 300.632 47.2464 299.455 46.0616C298.278 44.8849 296.652 44.2925 294.586 44.2925H294.57Z" fill="#F0C969"/>
<path d="M301.208 72.6785H240.025V77.1213H301.208V72.6785Z" fill="#F0C969"/>
<path d="M301.208 80.3794H240.025V83.5654H301.208V80.3794Z" fill="#F0C969"/>
<path d="M301.2 88.7288V87.2158H240.017V88.7288H264.119V88.2085C264.119 87.8162 264.207 87.5841 264.375 87.512C264.543 87.44 264.751 87.528 265 87.7682L266.009 88.7288H275.369L276.21 87.9123C276.458 87.6641 276.666 87.5841 276.834 87.6561C277.003 87.7282 277.091 87.9603 277.091 88.3526V88.7288H301.192H301.2Z" fill="#F0C969"/>
<path d="M230.44 44.2925H188.426C186.36 44.2925 184.743 44.8849 183.558 46.0616C182.381 47.2384 181.788 48.8634 181.788 50.9287V70.6053H237.07V50.9287C237.07 48.8634 236.478 47.2464 235.301 46.0616C234.124 44.8769 232.498 44.2925 230.432 44.2925H230.44Z" fill="#F0C969"/>
<path d="M237.07 72.6785H181.788V77.1213H237.07V72.6785Z" fill="#F0C969"/>
<path d="M237.07 83.5654V80.3794H228.214C228.366 80.7957 228.447 81.268 228.447 81.7963V83.5654H237.07Z" fill="#F0C969"/>
<path d="M181.788 80.3794V83.5654H219.23V81.7963C219.23 81.268 219.31 80.7957 219.47 80.3794H181.78H181.788Z" fill="#F0C969"/>
<path d="M181.788 88.7288H237.07V87.2158H226.893C226.405 87.48 225.82 87.6241 225.132 87.6241H222.625C221.937 87.6241 221.352 87.48 220.848 87.2158H181.788V88.7288Z" fill="#F0C969"/>
<path d="M325.158 59.9104H310.785C308.719 59.9104 307.102 60.5028 305.917 61.6795C304.74 62.8563 304.147 64.4813 304.147 66.5466V70.5972H331.788V66.5466C331.788 64.4813 331.195 62.8643 330.018 61.6795C328.841 60.4948 327.216 59.9104 325.15 59.9104H325.158Z" fill="#F0C969"/>
<path d="M327.736 56.9645C328.721 56.9645 329.53 56.6443 330.171 56.0039C330.811 55.3635 331.131 54.579 331.131 53.6424V47.6705C331.131 46.6859 330.811 45.8774 330.171 45.237C329.53 44.5966 328.721 44.2764 327.736 44.2764H308.127C307.19 44.2764 306.405 44.5966 305.764 45.237C305.124 45.8774 304.804 46.6859 304.804 47.6705V53.6424C304.804 54.579 305.124 55.3635 305.764 56.0039C306.405 56.6443 307.19 56.9645 308.127 56.9645H327.736Z" fill="#F0C969"/>
<path d="M331.788 72.6785H304.147V77.1213H331.788V72.6785Z" fill="#F0C969"/>
<path d="M331.788 80.3794H304.147V83.5654H331.788V80.3794Z" fill="#F0C969"/>
<path d="M331.788 87.2158H304.147V88.7288H331.788V87.2158Z" fill="#F0C969"/>
<path d="M169.962 150C157.478 150 148.278 146.382 143.322 139.305C137.196 130.556 138.197 117.635 146.212 101.929L148.35 103.018C140.767 117.884 139.702 129.955 145.291 137.928C151.985 147.478 167.56 150.072 189.163 145.229C211.119 140.306 236.51 128.282 260.66 111.375C284.81 94.4686 304.788 74.7279 316.927 55.7878C328.865 37.1519 331.756 21.6299 325.07 12.0798C311.418 -7.42064 260.82 3.69047 212.28 36.8477L202.743 43.4919L201.374 41.5227L210.919 34.8784C261.388 0.400363 312.387 -10.2144 327.04 10.711C334.326 21.1176 331.452 37.5842 318.952 57.0926C306.645 76.2889 286.435 96.2697 262.037 113.353C237.639 130.436 211.944 142.587 189.692 147.583C182.453 149.208 175.847 150.008 169.962 150.008V150Z" fill="#5069B1"/>
<path d="M296.18 36.0471C296.108 35.5028 296.044 34.9825 295.98 34.4701C295.748 32.733 295.499 30.9959 295.027 29.2988C294.338 26.8413 292.769 25.2642 290.343 24.5038C288.933 24.0635 287.492 23.7913 286.043 23.5912C285.194 23.4711 284.337 23.367 283.488 23.247C283.432 23.2389 283.368 23.2229 283.312 23.1829C284.113 23.0868 284.906 22.9908 285.706 22.8867C287.484 22.6546 289.254 22.3744 290.943 21.734C291.247 21.6219 291.536 21.4778 291.832 21.3337C293.449 20.5652 294.338 19.2124 294.907 17.5873C295.395 16.1944 295.651 14.7535 295.884 13.2966C296.012 12.4961 296.172 11.6956 296.236 10.887C296.252 10.6789 296.236 10.4628 296.236 10.2546C296.26 10.2546 296.284 10.2546 296.308 10.2546C296.356 10.5828 296.396 10.9031 296.436 11.2313C296.692 13.3046 297.013 15.3619 297.597 17.3712C298.23 19.5646 299.559 21.0696 301.737 21.822C303.002 22.2623 304.291 22.5665 305.604 22.7827C306.709 22.9668 307.822 23.0949 308.935 23.247C308.983 23.247 309.04 23.247 309.096 23.311C308.631 23.367 308.183 23.4231 307.742 23.4791C305.628 23.7593 303.523 24.1035 301.497 24.816C299.607 25.4804 298.366 26.7532 297.701 28.6344C297.173 30.1474 296.86 31.7004 296.636 33.2774C296.508 34.1499 296.396 35.0225 296.268 35.895C296.268 35.9351 296.268 35.9911 296.18 36.0391V36.0471Z" fill="#5069B1"/>
<path d="M173.685 139.465C173.613 138.921 173.549 138.401 173.485 137.888C173.253 136.151 173.004 134.414 172.532 132.717C171.843 130.259 170.274 128.682 167.848 127.922C166.438 127.482 164.997 127.21 163.548 127.009C162.699 126.889 161.842 126.785 160.994 126.665C160.937 126.657 160.873 126.641 160.817 126.601C161.618 126.505 162.411 126.409 163.212 126.305C164.989 126.073 166.759 125.793 168.448 125.152C168.753 125.04 169.041 124.896 169.337 124.752C170.955 123.983 171.843 122.631 172.412 121.006C172.9 119.613 173.157 118.172 173.389 116.715C173.517 115.914 173.677 115.114 173.741 114.305C173.757 114.097 173.741 113.881 173.741 113.673C173.765 113.673 173.789 113.673 173.813 113.673C173.861 114.001 173.901 114.321 173.941 114.649C174.197 116.723 174.518 118.78 175.102 120.789C175.735 122.983 177.064 124.488 179.242 125.24C180.507 125.681 181.796 125.985 183.11 126.201C184.215 126.385 185.328 126.513 186.441 126.665C186.489 126.665 186.545 126.665 186.601 126.729C186.136 126.785 185.688 126.841 185.247 126.897C183.134 127.177 181.028 127.522 179.002 128.234C177.112 128.899 175.871 130.171 175.206 132.053C174.678 133.566 174.366 135.119 174.141 136.696C174.013 137.568 173.901 138.441 173.773 139.313C173.773 139.353 173.773 139.409 173.685 139.457V139.465Z" fill="#5069B1"/>
</g>
<defs>
<clipPath id="clip0_108_9078">
<rect width="345" height="150" fill="white"/>
</clipPath>
</defs>
</svg>
